PathFileType	4	(X/Y/Z)	C:/Users/opensim2020/Desktop/walking_exp_matlab/subject06_walking20_straight_02.trc	
DataRate	CameraRate	NumFrames	NumMarkers	Units	OrigDataRate	OrigDataStartFrame	OrigNumFrames	
100.00	100.00	7	43	mm	100.00	1268	105	
Frame#	Time	LFHD			RFHD			LBHD			RBHD			C7			T10			CLAV			STRN			RBAK			LSHO			LUPA			LELB			LFRM			LWRA			LWRB			LFIN			RSHO			RUPA			RELB			RFRM			RWRA			RWRB			RFIN			LASI			RASI			LPSI			RPSI			LTHI			LKNE			LTIB			LANK			LHEE			LTOE			RTHI			RKNE			RTIB			RANK			RHEE			RTOE			*39			*40			*41			*42			
		X1	Y1	Z1	X2	Y2	Z2	X3	Y3	Z3	X4	Y4	Z4	X5	Y5	Z5	X6	Y6	Z6	X7	Y7	Z7	X8	Y8	Z8	X9	Y9	Z9	X10	Y10	Z10	X11	Y11	Z11	X12	Y12	Z12	X13	Y13	Z13	X14	Y14	Z14	X15	Y15	Z15	X16	Y16	Z16	X17	Y17	Z17	X18	Y18	Z18	X19	Y19	Z19	X20	Y20	Z20	X21	Y21	Z21	X22	Y22	Z22	X23	Y23	Z23	X24	Y24	Z24	X25	Y25	Z25	X26	Y26	Z26	X27	Y27	Z27	X28	Y28	Z28	X29	Y29	Z29	X30	Y30	Z30	X31	Y31	Z31	X32	Y32	Z32	X33	Y33	Z33	X34	Y34	Z34	X35	Y35	Z35	X36	Y36	Z36	X37	Y37	Z37	X38	Y38	Z38	X39	Y39	Z39	X40	Y40	Z40	X41	Y41	Z41	X42	Y42	Z42	X43	Y43	Z43	

27	0.260	1518.33228	758.68054	1649.11255	1387.13599	761.15802	1636.84607	1521.89905	891.35925	1592.94641	1393.56580	892.32465	1586.01868	1465.67566	890.38251	1432.24121	1448.74463	916.61102	1103.30908	1460.42407	776.25446	1358.57605	1461.16919	732.94080	1183.75085	1382.98657	959.55542	1260.76624	1624.65491	829.95508	1385.88062	1692.21082	876.36975	1190.75366	1697.97791	915.74536	1084.31763	1719.73083	938.72729	936.30273	1677.91174	916.91162	807.12720	1715.97961	976.21783	823.50513	1710.92554	968.44940	731.39087	1301.57593	829.36908	1392.16602	1208.95178	868.76691	1197.78601	1194.39514	854.68384	1077.48840	1181.04395	807.29388	968.32770	1221.66296	706.41302	862.27936	1181.51636	756.62158	841.33862	1181.67969	694.12006	786.57416	1550.52161	726.31226	957.99982	1335.39136	749.32623	942.62079	1535.34937	888.66199	977.93176	1368.45776	897.10748	965.43689	1631.73730	720.32233	656.18518	1604.54871	674.97980	500.86234	1608.99658	670.36371	241.69781	1571.77563	665.39044	68.78758	1529.64819	707.93384	53.47680	1557.03064	520.74536	44.97441	1299.94604	819.68256	597.08038	1321.48438	820.57611	470.79126	1352.03064	1026.20349	315.02765	1405.35999	1177.09082	217.39015	1455.80640	1205.56580	240.69063	1397.04968	1159.92920	60.20256	1460.94836	860.89410	1685.38586									 
28	0.270	1519.65137	744.50085	1651.07593	1388.43274	747.54913	1639.37610	1523.68152	877.48077	1595.17346	1395.11279	878.74414	1588.70300	1466.77734	876.29510	1434.36353	1449.66577	901.65173	1105.33362	1461.09583	762.15521	1361.04565	1461.59558	718.13953	1186.33960	1383.89917	945.39288	1262.67395	1625.53064	814.96460	1387.80811	1693.68018	858.44702	1191.84509	1699.89014	896.33496	1085.00769	1721.87695	917.25269	936.77899	1679.52612	894.85516	807.89972	1718.43750	953.25342	823.28870	1713.21143	945.10840	731.54022	1302.38867	816.01428	1394.32373	1210.20142	855.61908	1199.66602	1196.34680	842.97357	1079.01892	1182.77222	798.18250	968.43427	1222.34436	700.30048	858.84692	1182.41614	751.48950	839.73926	1182.08044	690.92761	782.87732	1551.96240	711.40851	960.44525	1336.59412	735.02661	944.39063	1536.58911	873.50793	980.19910	1369.80579	882.71954	966.96124	1631.70544	709.70618	655.87866	1604.10376	666.27936	500.43524	1607.70398	665.88690	241.71606	1570.60400	664.62347	68.97380	1528.99353	707.69983	53.72997	1555.09180	520.36676	44.12252	1301.02527	798.57819	598.12054	1322.26465	795.38818	471.96735	1351.23999	999.45343	316.93243	1403.97229	1152.65894	222.25780	1454.12927	1181.50269	246.02594	1397.70264	1137.72546	63.83364	1462.82593	846.92645	1687.76038									 
29	0.280	1520.83398	730.39124	1653.14038	1389.59131	733.87457	1641.96704	1525.10339	863.41437	1597.44141	1396.55188	865.15216	1591.50684	1467.74402	862.16815	1436.70190	1450.72107	886.79993	1107.52148	1461.66626	748.10266	1363.53333	1462.01770	703.57404	1188.93396	1384.86292	931.51733	1264.87012	1626.29907	800.34650	1389.90295	1694.87549	840.17450	1192.93616	1701.76819	876.67096	1085.70251	1723.97729	895.35693	937.23358	1680.91064	871.91766	808.75500	1721.52588	930.05658	823.66650	1715.99084	920.68903	731.80750	1303.00854	802.60474	1396.44019	1211.47668	842.80865	1201.52917	1198.00635	831.41650	1080.49817	1184.31665	789.48285	968.48865	1222.89514	694.82013	855.53992	1183.45300	746.46356	838.31488	1182.41748	687.89233	779.37360	1553.09253	696.72791	962.54620	1337.84155	721.71143	946.32306	1538.28174	858.31818	982.54694	1371.47791	868.42749	968.65906	1631.44250	699.13251	655.83618	1603.70630	658.71033	499.79550	1606.82385	663.23865	241.62112	1569.55908	664.03577	69.15770	1528.27954	707.55719	54.07673	1553.74744	520.00287	43.40099	1302.39099	777.44696	599.49829	1323.19824	770.59174	473.61047	1350.28723	973.15875	318.74994	1403.01001	1128.03088	226.31093	1451.60852	1159.34766	248.77771	1397.91113	1106.53870	68.46194	1464.50525	832.91217	1690.25977									 
30	0.290	1521.91138	716.23047	1655.29395	1390.64197	720.20148	1644.62842	1526.33411	849.34808	1599.72571	1397.82800	851.52386	1594.28174	1468.56458	848.13080	1439.04639	1451.86047	872.18762	1109.80151	1462.12866	734.14551	1366.04688	1462.43909	689.17578	1191.47156	1385.85938	917.62689	1267.11670	1626.97302	785.77026	1392.12598	1696.05005	822.12964	1194.21033	1703.55566	856.94220	1086.48608	1726.35681	873.29327	938.10809	1682.65869	848.34088	809.62494	1724.27991	905.86560	823.82404	1718.50500	895.32422	732.09943	1303.60547	789.20862	1398.55652	1212.61890	830.01044	1203.46692	1199.46790	819.86493	1081.91370	1185.72644	780.97363	968.63446	1223.45398	689.59595	852.37787	1184.13831	742.02997	837.17804	1183.04248	685.56689	776.19128	1554.06384	682.04150	964.25702	1338.65637	707.84888	948.61932	1540.16760	843.26599	985.03107	1373.26367	854.58667	970.87323	1631.32288	688.90997	656.24329	1603.73901	652.17230	499.27588	1606.24438	661.81494	241.52879	1568.94592	663.72858	69.49127	1527.71167	707.44208	54.27635	1552.80273	519.85876	42.91065	1303.57080	756.89215	601.45325	1324.29065	746.28754	475.96243	1349.56421	947.26422	320.94098	1401.33997	1101.26392	227.43738	1449.17517	1135.50879	249.15062	1398.03320	1072.81213	71.40614	1466.02124	818.94543	1692.73267									 
31	0.300	1522.77979	702.28198	1657.68726	1391.54077	706.50006	1647.39539	1527.43103	835.33484	1602.11194	1398.87183	837.84290	1597.01953	1469.32996	834.18915	1441.46973	1453.14502	857.81110	1112.18262	1462.59949	720.18402	1368.63281	1462.95654	675.00531	1194.02673	1387.06311	903.87048	1269.41174	1627.54358	771.44281	1394.48340	1697.12915	804.22357	1195.74084	1705.28540	836.98962	1087.46521	1728.33838	850.52948	938.90118	1684.17212	824.13239	810.85260	1726.59802	880.77161	823.83789	1720.85376	869.03448	732.52942	1304.07678	775.83795	1400.71643	1213.69543	817.82660	1205.49695	1200.75598	808.44373	1083.45288	1187.01685	772.61829	968.86743	1224.11877	684.92365	849.46149	1184.91418	737.87622	836.32050	1183.70520	683.71008	773.29382	1554.77539	667.49414	965.76923	1339.25146	693.79352	951.11444	1541.98279	828.38477	987.51678	1375.07751	841.04694	973.52783	1631.14734	679.29602	656.77631	1604.05969	646.13934	499.02972	1606.36951	661.08368	241.56976	1568.76074	663.60272	69.76432	1527.51392	707.42950	54.54129	1552.41309	519.94116	42.51991	1304.75195	736.53809	604.04346	1325.78040	721.89636	479.15857	1348.78979	920.52942	322.61972	1399.76709	1073.26221	226.51505	1447.33813	1109.68689	247.35493	1397.37170	1037.97180	72.96897	1467.32251	805.10175	1695.26501									 
32	0.310	1523.42224	688.16614	1660.15247	1392.18176	692.89709	1650.15161	1528.33386	821.29193	1604.54504	1399.78662	824.15918	1599.71655	1469.93567	820.19061	1443.96448	1454.53613	843.63428	1114.57776	1463.00110	706.32715	1371.18469	1463.52942	661.06219	1196.56970	1388.32629	890.08264	1271.73999	1628.11133	757.27557	1397.05981	1698.16333	786.45740	1197.52454	1706.88220	816.94800	1088.66077	1730.17542	827.34418	939.90771	1685.36060	799.03595	812.36060	1729.06433	855.31586	824.38837	1723.48987	841.84399	733.37109	1304.51331	762.40247	1402.91333	1214.45654	805.20227	1207.65845	1201.93750	797.05951	1085.16089	1188.14783	764.47784	969.36395	1224.73035	680.26666	847.02100	1185.75171	733.67004	835.68469	1184.21558	681.79767	770.67200	1555.27063	653.10767	967.12097	1340.23901	681.29517	953.80945	1543.67395	813.71149	990.02234	1376.84814	827.39569	976.35596	1631.24890	669.91748	657.74292	1604.59814	640.34991	499.05286	1607.12646	660.23383	241.66684	1568.74243	663.50391	69.84977	1527.53101	707.53296	54.77057	1552.34290	520.05688	42.28847	1305.93420	716.16907	607.34851	1327.22131	697.64996	483.02817	1348.22729	892.67664	323.15152	1398.78027	1044.82202	224.44762	1446.26367	1082.82703	243.78676	1396.13831	1001.65173	73.78983	1468.31250	791.23016	1697.85522									 
33	0.320	1523.81201	674.17865	1662.52026	1392.74060	679.17419	1652.68787	1529.01978	807.22632	1606.97192	1400.50586	810.43524	1602.34607	1470.50354	806.17291	1446.48950	1456.08179	829.54004	1117.01709	1463.39392	692.44763	1373.70215	1464.19043	647.14728	1199.06689	1389.82666	876.30322	1274.19861	1628.56604	743.10950	1399.72559	1699.09277	768.91327	1199.57031	1708.40503	796.80414	1090.12170	1731.91418	803.82776	941.25726	1686.83313	773.45135	814.24133	1731.38953	829.32446	825.24524	1726.12915	813.83795	734.66443	1304.99231	749.02838	1405.11096	1215.72827	793.03308	1209.69250	1203.16064	785.66565	1087.05310	1189.22058	756.43567	970.08514	1225.34546	676.02448	844.89783	1186.40015	729.93848	835.39429	1184.98865	680.21161	768.46100	1555.67542	638.81628	968.48895	1340.68640	667.71094	956.76172	1545.11536	799.27081	992.48590	1378.43848	813.83820	979.29559	1631.34338	660.46002	658.75140	1605.35925	634.72491	499.14087	1607.88293	658.53729	241.89830	1568.89355	663.39832	69.84178	1527.77380	707.64130	54.91371	1552.26367	520.24286	42.17219	1306.89978	695.98334	611.03485	1328.63721	673.44720	487.30383	1347.72791	864.60669	322.76767	1397.93994	1015.54486	220.99208	1445.45764	1055.24536	238.29576	1394.77136	964.48883	73.53111	1469.18140	777.33557	1700.33997									 
